<?xml version="1.0" encoding="utf-8"?>
<!-- Generator: Adobe Illustrator 25.0.0, SVG Export Plug-In . SVG Version: 6.00 Build 0)  -->
<svg version="1.1" id="Layer_1" xmlns="http://www.w3.org/2000/svg" xmlns:xlink="http://www.w3.org/1999/xlink" x="0px" y="0px"
	 viewBox="0 0 24 24" style="enable-background:new 0 0 24 24;" xml:space="preserve">
<style type="text/css">
	.st0{fill:#FD6CB4;}
</style>
<g id="XMLID_1_">
	<g>
		<circle class="st0" cx="17.2" cy="6.9" r="1.2"/>
		<path class="st0" d="M12,15.1c1.7,0,3.1-1.4,3.2-3.2c0-0.9-0.4-1.7-1-2.3c-0.6-0.6-1.4-0.9-2.2-0.9c-1.8,0-3.2,1.4-3.2,3.2
			S10.3,15.1,12,15.1z M17.2,12c0,2.9-2.3,5.2-5.2,5.2S6.8,14.9,6.8,12S9.2,6.8,12,6.8S17.1,9.1,17.2,12z"/>
		<path class="st0" d="M16,22H7.9C4.7,22,2,19.3,2,16V7.9C2,4.7,4.7,2,7.9,2H16c3.3,0,6,2.7,5.9,5.9v8.2C21.9,19.3,19.3,22,16,22z
			 M7.9,19.9h8.2c2.1,0,3.9-1.7,3.9-3.9V7.9C20,5.8,18.2,4,16,4H7.9C5.8,4,4,5.8,4,7.9V16C4,18.2,5.8,20,7.9,19.9z"/>
	</g>
	<g>
	</g>
</g>
</svg>
