<?xml version="1.0" encoding="utf-8"?>
<!-- Generator: Adobe Illustrator 25.0.0, SVG Export Plug-In . SVG Version: 6.00 Build 0)  -->
<svg version="1.1" id="Layer_1" xmlns="http://www.w3.org/2000/svg" xmlns:xlink="http://www.w3.org/1999/xlink" x="0px" y="0px"
	 viewBox="0 0 24 24" style="enable-background:new 0 0 24 24;" xml:space="preserve">
<style type="text/css">
	.st0{fill:#FD6CB4;}
</style>
<path class="st0" d="M17,9c0-2.8-2.2-5-5-5S7,6.2,7,9c0,1.7,1.7,5,5,9.7C15.3,14,17,10.7,17,9z M12,22C7.3,15.9,5,11.6,5,9
	c0-3.9,3.1-7,7-7s7,3.1,7,7C19,11.6,16.7,15.9,12,22z M12,13c-2.2,0-4-1.8-4-4s1.8-4,4-4s4,1.8,4,4S14.2,13,12,13z M12,11
	c1.1,0,2-0.9,2-2s-0.9-2-2-2s-2,0.9-2,2S10.9,11,12,11z"/>
<image style="overflow:visible;" width="68" height="46" xlink:href="../../../Library/Mobile Documents/com~apple~CloudDocs/.Trash/Zrzut ekranu 2020-11-17 o 16.47.02.png"  transform="matrix(0.5 0 0 0.5 -169 -18.5)">
</image>
</svg>
